<svg width="82" height="82" viewBox="0 0 82 82" fill="none" xmlns="http://www.w3.org/2000/svg">
<path d="M40.5208 61.0696C29.267 61.0696 20.1445 51.8705 20.1445 40.5221C20.1445 29.1737 29.267 19.9746 40.5208 19.9746C51.7746 19.9746 60.897 29.1737 60.897 40.5221C60.897 51.8705 51.7746 61.0696 40.5208 61.0696ZM32.5333 47.4959C33.2027 49.0729 34.3163 50.417 35.7362 51.3616C37.1561 52.3062 38.8197 52.8097 40.5208 52.8097C42.2218 52.8097 43.8854 52.3062 45.3053 51.3616C46.7252 50.417 47.8389 49.0729 48.5083 47.4959C48.6137 47.2477 48.6696 46.9809 48.6728 46.7109C48.676 46.4408 48.6264 46.1728 48.5269 45.9221C48.4274 45.6714 48.2798 45.4429 48.0928 45.2497C47.9057 45.0564 47.6827 44.9023 47.4365 44.796C47.1903 44.6896 46.9258 44.6333 46.658 44.63C46.3902 44.6268 46.1244 44.6768 45.8758 44.7772C45.6272 44.8775 45.4006 45.0263 45.209 45.215C45.0174 45.4036 44.8645 45.6285 44.759 45.8768C44.4029 46.7124 43.8115 47.4244 43.0583 47.9247C42.305 48.425 41.4228 48.6917 40.5208 48.6917C39.6188 48.6917 38.7366 48.425 37.9833 47.9247C37.23 47.4244 36.6387 46.7124 36.2825 45.8768C36.1771 45.6285 36.0242 45.4036 35.8326 45.215C35.641 45.0263 35.4144 44.8775 35.1658 44.7772C34.9172 44.6768 34.6514 44.6268 34.3836 44.63C34.1158 44.6333 33.8513 44.6896 33.6051 44.796C33.3589 44.9023 33.1359 45.0564 32.9488 45.2497C32.7617 45.4429 32.6142 45.6714 32.5147 45.9221C32.4151 46.1728 32.3656 46.4408 32.3688 46.7109C32.372 46.9809 32.4279 47.2477 32.5333 47.4959ZM34.4079 32.3031C33.8675 32.3031 33.3492 32.5196 32.9671 32.9049C32.585 33.2903 32.3703 33.8129 32.3703 34.3578V38.4673C32.3703 39.0123 32.585 39.5349 32.9671 39.9203C33.3492 40.3056 33.8675 40.5221 34.4079 40.5221C34.9483 40.5221 35.4666 40.3056 35.8487 39.9203C36.2309 39.5349 36.4455 39.0123 36.4455 38.4673V34.3578C36.4455 33.8129 36.2309 33.2903 35.8487 32.9049C35.4666 32.5196 34.9483 32.3031 34.4079 32.3031ZM46.6337 32.3031C46.0932 32.3031 45.575 32.5196 45.1928 32.9049C44.8107 33.2903 44.596 33.8129 44.596 34.3578V38.4673C44.596 39.0123 44.8107 39.5349 45.1928 39.9203C45.575 40.3056 46.0932 40.5221 46.6337 40.5221C47.1741 40.5221 47.6923 40.3056 48.0745 39.9203C48.4566 39.5349 48.6713 39.0123 48.6713 38.4673V34.3578C48.6713 33.8129 48.4566 33.2903 48.0745 32.9049C47.6923 32.5196 47.1741 32.3031 46.6337 32.3031Z" fill="#00FF5D"/>
</svg>
