<svg width="82" height="82" viewBox="0 0 82 82" fill="none" xmlns="http://www.w3.org/2000/svg">
<path d="M59.4848 23.714C58.3482 22.5544 56.9932 21.6313 55.498 20.998C54.0028 20.3648 52.397 20.0339 50.7733 20.0244C46.7762 20.0244 42.5741 23.2016 40.5244 26.6862C38.4746 23.2016 34.2725 20.0244 30.2755 20.0244C28.6517 20.0339 27.0459 20.3648 25.5507 20.998C24.0555 21.6313 22.7005 22.5544 21.5639 23.714C20.4182 24.8557 19.511 26.2139 18.8952 27.7095C18.2794 29.205 17.9672 30.8082 17.9768 32.4256C18.019 34.5733 18.6578 36.6669 19.8216 38.4724H30.173L33.4526 32.8355C33.5566 32.6875 33.6948 32.5667 33.8553 32.4833C34.0158 32.3999 34.1941 32.3564 34.375 32.3564C34.5559 32.3564 34.7342 32.3999 34.8947 32.4833C35.0553 32.5667 35.1934 32.6875 35.2974 32.8355L40.5244 41.6496L42.4717 38.4724H50.6708C51.1772 38.4632 51.6706 38.6328 52.0643 38.9515C52.458 39.2702 52.7267 39.7175 52.823 40.2147C52.8676 40.5085 52.8478 40.8085 52.765 41.0938C52.6821 41.3792 52.5382 41.6431 52.3433 41.8674C52.1483 42.0916 51.9069 42.2707 51.6358 42.3924C51.3647 42.5141 51.0704 42.5754 50.7733 42.572H44.7264L41.4468 48.2089C41.3427 48.3569 41.2046 48.4777 41.0441 48.5611C40.8835 48.6445 40.7053 48.6881 40.5244 48.6881C40.3434 48.6881 40.1652 48.6445 40.0046 48.5611C39.8441 48.4777 39.706 48.3569 39.602 48.2089L34.375 39.3948L32.4277 42.572H22.8963C22.8963 42.6264 22.9178 42.6785 22.9563 42.7169C22.9947 42.7554 23.0469 42.777 23.1012 42.777C25.151 45.1342 36.7323 57.4329 39.8069 60.7126C39.9985 60.9003 40.2561 61.0055 40.5244 61.0055C40.7926 61.0055 41.0502 60.9003 41.2418 60.7126C44.3165 57.4329 55.8977 45.1342 57.9475 42.777C59.9973 40.4197 63.0719 36.6276 63.0719 32.4256C63.0816 30.8082 62.7694 29.205 62.1535 27.7095C61.5377 26.2139 60.6305 24.8557 59.4848 23.714Z" fill="#00FF5D"/>
</svg>
