<svg width="82" height="84" viewBox="0 0 82 84" fill="none" xmlns="http://www.w3.org/2000/svg">
<path d="M29.8886 55.2441C28.0443 55.2441 26.2472 55.4337 24.4883 55.7328C24.3662 58.7446 24.3512 63.1324 25.7946 64.8365C27.8269 67.2369 32.3136 67.2369 34.1175 64.5038C35.9063 61.7909 34.72 57.8895 34.2194 55.5679C32.7978 55.379 31.3611 55.2441 29.8886 55.2441Z" fill="#00FF5D"/>
<path d="M31.0532 27.9081C26.4039 28.0722 21.6991 38.9566 22.9566 44.5374C23.4092 46.5376 24.5986 50.6646 24.5986 53.0716C24.5986 53.3639 24.5761 53.8203 24.5498 54.3719C26.2937 54.0916 28.0676 53.9057 29.8886 53.9057C31.281 53.9057 32.6464 54.0181 33.9939 54.1823C33.8605 52.8798 33.8222 50.8639 34.2831 48.8023C34.9044 46.0137 36.2083 43.1135 36.7442 41.6365C37.8361 38.6298 35.7025 27.7432 31.0532 27.9081Z" fill="#00FF5D"/>
<path d="M51.1632 45.1777C49.6569 45.1777 48.1866 45.3186 46.7372 45.5165C46.1991 47.8726 45.2601 51.4622 46.9343 53.9997C48.7374 56.7328 53.2256 56.7328 55.2572 54.3332C56.6301 52.7108 56.6826 48.6512 56.5807 45.6663C54.8166 45.3696 53.0127 45.1777 51.1632 45.1777Z" fill="#00FF5D"/>
<path d="M49.9947 17.4052C45.3446 17.2403 43.211 28.1269 44.3052 31.135C44.8425 32.6106 46.145 35.5131 46.7655 38.3016C47.2803 40.6068 47.1739 42.8715 47.0045 44.1245C48.3684 43.9551 49.7481 43.839 51.16 43.839C52.9885 43.839 54.7684 44.0256 56.519 44.3096C56.483 43.5534 56.4485 42.9367 56.4485 42.568C56.4485 40.1609 57.6386 36.0339 58.0912 34.0337C59.3487 28.4559 54.6432 17.5693 49.9947 17.4052Z" fill="#00FF5D"/>
</svg>
